<?xml version="1.0" encoding="utf-8"?>
<!-- Generator: Adobe Illustrator 25.0.0, SVG Export Plug-In . SVG Version: 6.00 Build 0)  -->
<svg version="1.1" id="Слой_1" xmlns="http://www.w3.org/2000/svg" xmlns:xlink="http://www.w3.org/1999/xlink" x="0px" y="0px"
	 viewBox="0 0 240 240" style="enable-background:new 0 0 240 240;" xml:space="preserve">
<style type="text/css">
	.st0{fill-rule:evenodd;clip-rule:evenodd;fill:#FFFFFF;}
	.st1{fill-rule:evenodd;clip-rule:evenodd;}
</style>
<circle class="st0" cx="120" cy="120" r="120"/>
<g id="_817910192">
	<path class="st1" d="M117.6,54.2c-7.6,1-12.7,2.6-18.5,7.1c-2.5,2-4.3,3.8-6.3,6.4c-1.8,2.3-3.5,5.4-4.6,8.2
		c-4.5,11.7-2.1,23.4,5,33.2c3.1,4.2,9.8,9.1,14.7,10.8c4.9,1.7,8.9,2.5,14.6,2.2c24-1.5,39-27.6,27.7-49.7
		c-1.1-2.1-2.1-3.5-3.4-5.2C140.7,58.7,127.9,52.8,117.6,54.2z M117.7,74.3c-8,1.6-12.7,8.6-11.6,16.1c1.1,6.9,7.8,13.2,16.3,11.7
		c12.4-2.2,15.6-17.9,6.3-25C126.2,75.1,122,73.4,117.7,74.3z"/>
	<path class="st1" d="M102.7,181.7c1.5-1.5,16.5-16.6,17.4-17.2c0.9,0.6,2.2,2.1,3.1,2.9l15,15c2.1,2.1,4.5,3.6,8.9,3.4
		c3.4-0.9,5.8-2.2,7.4-5.1c0.5-0.9,0.9-1.9,1.1-3c1.1-5.8-2.7-8.8-5-11.2c-1.2-1.2-16-15.7-16.5-16.6c6.6-1.6,12.1-3.9,17.3-6.9
		c2.9-1.6,5-2.9,6.1-6.1c2.5-7-2.9-13.7-9.6-13.5c-3.9,0.1-5.7,2.1-8.5,3.5c-13.1,6-26.3,6.1-39.2-0.4c-2.7-1.4-5-3.5-8.9-3.2
		c-7.4,0.4-11.2,8.1-8.6,14c1.4,3,3.4,4.2,6.3,5.8c5.1,3,10.9,5.2,17.2,6.8c-0.6,0.9-15.6,15.7-16.8,16.8c-2.4,2.4-6.1,5.3-4.9,11.3
		C86.3,187.5,96.1,188.4,102.7,181.7z"/>
</g>
</svg>
