<?xml version="1.0" encoding="utf-8"?>
<!-- Generator: Adobe Illustrator 25.0.0, SVG Export Plug-In . SVG Version: 6.00 Build 0)  -->
<svg version="1.1" id="Слой_1" xmlns="http://www.w3.org/2000/svg" xmlns:xlink="http://www.w3.org/1999/xlink" x="0px" y="0px"
	 viewBox="0 0 64 64" style="enable-background:new 0 0 64 64;" xml:space="preserve">
<style type="text/css">
	.st0{fill:#FFFFFF;}
</style>
<circle class="st0" cx="32" cy="32" r="32"/>
<path d="M44.3,38.4c-2.9-2.6-2.5-2.2,1-6.6c2.1-2.7,3-5.2,2.8-6c-0.1-0.5-1-0.5-1.8-0.5s-4.8,0-5.2,0s-0.4,0-0.7,0.2
	S39.9,26,39.9,26s-0.9,3-2,4.8c-2.3,3.8-3.6,3.5-4,3.3c-0.9-0.5-0.7-2.2-0.7-3.4c0-3.7,0.4-4.7-1.3-5.1c-0.6-0.1-1-0.2-2.4-0.2
	c-1.9,0-3,0.1-3.7,0.4c-0.6,0.3-1.1,0.8-0.8,0.8c0.3,0,1.1,0.3,1.6,0.9c0.5,0.7,0.5,2.3,0.5,2.3s0.3,3.6-0.7,4.2
	c-0.7,0.4-1.7,0.3-3.8-3.1c-1.1-1.8-1.9-4.5-1.9-4.5s-0.2-0.4-0.4-0.6c-0.3-0.2-0.8-0.3-0.8-0.3h-5c0,0-0.7,0-1,0.3
	c-0.2,0.3,0,0.7,0,0.7s3.8,9,8.1,13.5c3,3.2,6.1,4.1,8.9,4.1h1.6c0.9,0,1.2-0.2,1.2-0.6c0-1.2,0-2.7,1.1-3c1.3-0.4,3.1,1.8,4.8,3
	c1.1,0.7,2.3,0.7,2.3,0.7h5.1c0,0,2.4-0.2,1.3-2.1C47.7,41.8,47.1,40.9,44.3,38.4z"/>
</svg>
