<?xml version="1.0" encoding="utf-8"?>
<!-- Generator: Adobe Illustrator 25.0.0, SVG Export Plug-In . SVG Version: 6.00 Build 0)  -->
<svg version="1.1" id="Слой_2_1_" xmlns="http://www.w3.org/2000/svg" xmlns:xlink="http://www.w3.org/1999/xlink" x="0px"
	 y="0px" viewBox="0 0 2239.2 475.9" style="enable-background:new 0 0 2239.2 475.9;" xml:space="preserve">
<style type="text/css">
	.st0{fill:#FFFFFF;}
	.st1{enable-background:new    ;}
</style>
<path class="st0" d="M284.5,475.3c-7.5,0-15.2-0.2-22.7-0.4h-0.4l-0.1-0.4c-2.2-11.9-4.5-23.8-6.8-35.5c-3.8-19.4-6-30.1-11-43.9
	c-3.3-9.8-8.8-18.8-15.9-26.3c-7.4-7.6-11.4-7.8-12.7-7.9h-0.5c-6.7,0-12.1,6.1-17.1,12.3c-13.6,17.2-25.6,35.6-35.9,54.9
	c-4.1,7.6-7.4,13.6-11.4,21.9c-0.6,1.2-1.3,2.7-2.3,4.9c-1.4,3-3.5,7.3-6.6,13.8l-2.9,6.1H138c-1.4,0-3.6,0.1-6.2,0.1
	c-2,0-3.7,0-5,0c-1.6,0-2.9,0-4.1,0s-2.2,0-3.5,0h-2.6c-3.8,0-6.2,0.2-8.3,0.3s-3.8,0.2-6.3,0.2h-2.5c-2.7,0-5.4-0.2-8-0.3h-0.6
	l0.2-0.6c0.8-2.4,1.7-4.8,2.7-7.1c1.2-2.8,2.2-4.8,3.4-7.4l0.5-1c1-2,1.9-4,2.9-6c0.8-1.6,1.5-3.2,2.3-4.8
	c5.6-11.6,15.7-34.1,15.8-34.3c26.4-58.8,29.5-66.7,32-73c6.3-15.2,11.3-30.9,15-46.9c4.8-21.2,3.8-28.7,2.5-34
	c-2.7-11.2-8.9-17.9-21.3-31.4l-0.1-0.1c-13-13.6-27.3-25.8-42.7-36.4L104,192c-0.9-0.6-3.8-2.6-7.4-5.4c-2.3-1.8-4.6-3.8-6.7-5.8
	l-0.3-0.3l0.2-0.3c2.4-4.6,5-9.2,7.8-13.6c1.9-3,3.8-6,5.8-8.9l0.3-0.4l0.4,0.2c10.8,5.5,21.5,11.1,31.9,16.6
	c3.8,2,7.2,3.8,10.2,5.4c11.7,6.2,18.2,9.6,28.3,14.3c20.4,9.4,28.5,11.2,31.9,12c5.7,1.3,12.2,2.8,19.6,2.8c3.1,0,6.2-0.3,9.2-0.8
	c10.9-1.8,18.3-6.1,24.8-9.9c10.2-6,19.3-13.8,26.9-22.9c1.1-1.3,6.2-8.1,16.5-21.7l5.6-7.4l0.4,0.1c4.2,1.7,8.4,3.6,12.4,5.7
	c4.2,2.2,8.3,4.6,12.3,7.2l0.4,0.3l-0.2,0.4c-2.6,5-5.4,10-8.3,14.9c-2.5,4.2-6.3,10.5-14,22.2c-9.9,15-19.1,27.9-19.2,28
	c-2,2.8-3.6,5.1-5,7c-4.7,6.6-6.5,9.1-9,13.9c-3.2,6.5-5.7,13.3-7.5,20.4c-1.6,6.6-3.2,15.6-1.5,39.3c1.5,18.8,4.2,37.5,8,55.9
	c2.7,13.4,5.3,24,7,31c2.8,11.3,4.9,18.9,6.8,25.5c2.2,7.7,4,14.4,6.3,24.5c2.4,10.7,4.3,21.8,5.8,32.9l0.1,0.6H303
	c-5.2,0.1-10.5,0.2-15.7,0.2L284.5,475.3z"/>
<path class="st0" d="M17,203.5L215.5,65l200.8,137.5l33.3-58.3L249.5,0L0,174l8.5,13.5C11.3,192.8,14.2,198.2,17,203.5z"/>
<path class="st0" d="M100.3,468.6"/>
<path class="st0" d="M226.1,192c-0.5,0-1.1,0-1.6,0c-4.7-0.2-9.3-1.5-13.4-3.9c-2.3-1.4-5.8-3.5-8-7.5c-3.7-6.7-1.6-14-0.5-17.5
	c2.2-7.6,6.7-12.3,9.9-15.7c5.8-6.1,13-10.7,21-13.3c4-1.4,8.2-2.2,12.4-2.3c0.8,0,1.5,0,2.3,0.1c4,0.3,9.5,0.6,14.3,4.8
	c3,2.6,5.2,6.2,6.2,10.1c1.3,4.9,0.4,8.8-0.5,12.9c-0.9,4.2-2.6,8.2-4.9,11.8c-2.5,3.8-5.6,7.1-9.3,9.8c-5,4-10.8,7.1-17,8.9
	C233.5,191.4,229.8,192,226.1,192L226.1,192z"/>
<path class="st0" d="M245.9,132.3c0.7,0,1.5,0,2.2,0.1c3.9,0.3,9.3,0.6,14,4.7c2.9,2.6,5,6,6,9.8c1.3,4.8,0.4,8.6-0.5,12.7
	c-0.9,4.1-2.6,8.1-4.8,11.7c-2.5,3.7-5.6,7-9.2,9.7c-5,4-10.7,7-16.8,8.8c-3.5,1.2-7.1,1.8-10.7,1.9c-0.5,0-1,0-1.6,0
	c-4.6-0.2-9.2-1.5-13.2-3.8c-2.3-1.4-5.6-3.4-7.8-7.3c-3.6-6.5-1.5-13.6-0.5-17.2c2.2-7.5,6.5-12,9.8-15.5
	c5.8-6,12.9-10.6,20.8-13.2C237.6,133.1,241.8,132.4,245.9,132.3 M245.9,131.3c-4.3,0.1-8.5,0.8-12.6,2.3
	c-8.1,2.6-15.4,7.3-21.3,13.4c-3.3,3.5-7.8,8.2-10.1,15.9c-1,3.6-3.2,11.1,0.6,17.9c2.3,4.2,5.9,6.3,8.2,7.7c4.1,2.5,8.8,3.8,13.6,4
	c0.6,0,1.1,0,1.6,0c3.7-0.1,7.5-0.7,11-1.9c6.2-1.9,12.1-4.9,17.2-9c3.7-2.7,6.9-6.1,9.4-9.9c2.4-3.7,4-7.7,5-12
	c1-4.2,1.8-8.1,0.5-13.1c-1-4-3.2-7.6-6.3-10.3c-5-4.3-10.5-4.6-14.6-4.9C247.5,131.3,246.7,131.3,245.9,131.3L245.9,131.3z"/>
<g class="st1">
	<path class="st0" d="M584.5,347.9h-50.3v-37.4c0-10.9-0.5-17.6-1.6-20.3c-1.1-2.7-3.4-4-7.1-4c-4.1,0-6.8,1.6-7.9,4.9
		c-1.1,3.3-1.7,10.4-1.7,21.2v99.8c0,10.4,0.6,17.3,1.7,20.4c1.1,3.2,3.6,4.8,7.5,4.8c3.7,0,6.2-1.6,7.3-4.8
		c1.2-3.2,1.7-10.7,1.7-22.5v-27h50.3v8.4c0,22.2-1.4,38-4.2,47.3s-9.1,17.5-18.8,24.5s-21.6,10.5-35.8,10.5
		c-14.7,0-26.9-3-36.4-8.9c-9.6-5.9-15.9-14.1-19-24.6s-4.7-26.3-4.7-47.3v-62.8c0-15.5,0.5-27.1,1.4-34.8c1-7.7,3.8-15.2,8.5-22.4
		c4.7-7.2,11.3-12.8,19.7-16.9c8.4-4.1,18.1-6.2,29-6.2c14.8,0,27,3.2,36.7,9.5c9.6,6.4,16,14.3,19,23.8s4.5,24.3,4.5,44.3v20.5
		L584.5,347.9L584.5,347.9z"/>
	<path class="st0" d="M708.7,254.3v43h-29.9v171.9h-50.3V297.3h-29.7v-43L708.7,254.3L708.7,254.3z"/>
	<path class="st0" d="M812,254.3l28.8,214.9h-51.4l-2.7-38.6h-18l-3,38.6h-52l25.7-214.9L812,254.3L812,254.3z M785.4,392.5
		c-2.5-24.3-5.1-54.4-7.7-90.3c-5.1,41.2-8.3,71.2-9.7,90.3H785.4z"/>
	<path class="st0" d="M977,469.2h-50.4v-172h-14.7v121.7c0,16-1.9,27.5-5.6,34.5c-3.7,7-9.4,11.4-16.9,13.1
		c-7.6,1.8-19.6,2.7-36.2,2.7h-7.9v-37c6.1,0,10.4-0.8,12.7-2.5s3.5-7.4,3.5-17.3V254.2H977V469.2z"/>
	<path class="st0" d="M1119.2,418.9c0,16-1.9,27.5-5.6,34.5s-9.4,11.4-17,13.1c-7.6,1.8-19.7,2.7-36.4,2.7H1002v-215h50.4v73.7h7.8
		c15.5,0,27.3,1,35.2,3.1c8,2,13.9,6.5,17.9,13.5c3.9,6.9,5.9,17.9,5.9,32.7L1119.2,418.9L1119.2,418.9z M1068.8,412.4v-31.1
		c0-9-0.8-14.5-2.4-16.5c-1.6-1.9-6.3-3.1-13.9-3.3v70.6c6.4,0,10.7-0.9,13-2.7C1067.6,427.7,1068.8,422,1068.8,412.4z"/>
	<path class="st0" d="M1141.9,254.2h50.4l0.2,90.8c9.5-0.3,14.4-6.1,14.7-17.5l1-41.9c0.3-15.5,3-25.9,8.1-31.3h46.5
		c-4.5,5.2-6.8,16-6.7,32.4l0.2,36.9c0.2,22.3-11.2,35-33.9,38.1c22.8,3.1,34.1,16,33.9,38.6l-0.2,34.2c-0.1,16.3,2.2,27.9,6.7,34.8
		h-46.5c-5.4-5.4-8.1-15.8-8.1-31.3v-42c0-5.3-1.5-9.6-4.4-12.8c-2.9-3.2-6.7-4.9-11.3-5l-0.2,91.1h-50.4L1141.9,254.2L1141.9,254.2
		z"/>
	<path class="st0" d="M1392.9,380.2c0,21.6-0.5,36.9-1.4,45.9s-3.8,17.2-8.6,24.6c-4.8,7.4-11.3,13.1-19.5,17.1s-17.8,6-28.7,6
		c-10.4,0-19.7-1.9-27.9-5.6c-8.2-3.8-14.9-9.4-19.9-16.9s-8-15.7-9-24.6c-1-8.8-1.4-24.3-1.4-46.5v-36.8c0-21.6,0.5-36.9,1.4-45.9
		s3.8-17.2,8.6-24.6c4.8-7.4,11.3-13.1,19.5-17.1s17.8-6,28.7-6c10.4,0,19.7,1.9,27.9,5.6c8.2,3.8,14.9,9.4,19.9,16.9s8,15.7,9,24.6
		c1,8.8,1.4,24.3,1.4,46.5V380.2z M1342.6,309.5c0-10-0.5-16.4-1.5-19.2c-1-2.8-3-4.2-6.2-4.2c-2.6,0-4.6,1.1-6,3.4s-2.1,8.9-2.1,20
		v100.4c0,12.5,0.5,20.2,1.4,23.1s3,4.4,6.4,4.4s5.6-1.7,6.6-5c1-3.4,1.4-11.4,1.4-24L1342.6,309.5L1342.6,309.5z"/>
	<path class="st0" d="M1571.7,254.3v214.9h-44l-0.1-145.1l-17.5,145.1H1479l-18.5-141.8l-0.1,141.8h-44V254.3h65.1
		c1.9,12.9,3.9,28.1,6,45.7l7.1,54.7l11.6-100.4L1571.7,254.3L1571.7,254.3z"/>
	<path class="st0" d="M1712.6,469.2h-50.4v-172h-14.9v172h-50.4v-215h115.8L1712.6,469.2L1712.6,469.2z"/>
	<path class="st0" d="M1860.3,469.2h-50.4v-172h-14.7v121.7c0,16-1.9,27.5-5.6,34.5s-9.4,11.4-16.9,13.1c-7.6,1.8-19.6,2.7-36.2,2.7
		h-7.9v-37c6.1,0,10.4-0.8,12.7-2.5c2.3-1.7,3.5-7.4,3.5-17.3V254.2h115.5V469.2z"/>
	<path class="st0" d="M1885.3,254.3h83.9v43h-33.6v40.8h31.4V379h-31.4v47.3h36.9v43h-87.2L1885.3,254.3L1885.3,254.3z"/>
	<path class="st0" d="M1991.9,254.2h50.4l0.2,90.8c9.5-0.3,14.4-6.1,14.7-17.5l1-41.9c0.3-15.5,3-25.9,8.1-31.3h46.5
		c-4.5,5.2-6.8,16-6.7,32.4l0.2,36.9c0.2,22.3-11.2,35-33.9,38.1c22.8,3.1,34.1,16,33.9,38.6l-0.2,34.2c-0.1,16.3,2.2,27.9,6.7,34.8
		h-46.5c-5.4-5.4-8.1-15.8-8.1-31.3v-42c0-5.3-1.5-9.6-4.4-12.8c-2.9-3.2-6.7-4.9-11.3-5l-0.2,91.1h-50.4V254.2z"/>
	<path class="st0" d="M2229.2,254.3v43h-29.9v171.9H2149V297.3h-29.7v-43L2229.2,254.3L2229.2,254.3z"/>
</g>
<g class="st1">
	<path class="st0" d="M533,113.9c5.4,2,9.4,5.3,12,9.9c2.6,4.6,4,15.4,4,32.3c0,12.6-1.3,22.3-3.9,29.3c-2.6,6.9-7,12.2-13.4,15.8
		s-14.4,5.4-24.3,5.4c-11.3,0-20.1-2.1-26.5-6.3s-10.6-9.3-12.7-15.4c-2-6.1-3-16.7-3-31.7v-12.5h35.5v25.7c0,6.8,0.4,11.2,1.1,13
		c0.7,1.9,2.4,2.8,4.9,2.8c2.8,0,4.6-1.2,5.4-3.5c0.8-2.3,1.3-8.5,1.3-18.4v-10.9c0-6.1-0.6-10.5-1.8-13.3s-3-4.6-5.4-5.5
		s-7.1-1.4-14-1.5v-22.9c8.4,0,13.7-0.4,15.6-1.1c2-0.7,3.4-2.3,4.3-4.7c0.9-2.4,1.3-6.2,1.3-11.3v-8.8c0-5.5-0.5-9.2-1.5-10.9
		c-1-1.8-2.6-2.6-4.8-2.6c-2.5,0-4.1,0.9-5.1,2.8c-0.9,1.9-1.4,5.8-1.4,11.9v13h-35.5V80.8c0-15.1,3.1-25.3,9.3-30.6
		c6.2-5.3,16.1-8,29.6-8c16.9,0,28.4,3.7,34.5,11c6,7.4,9.1,17.6,9.1,30.6c0,8.8-1.1,15.2-3.3,19.2
		C542.3,107.1,538.5,110.6,533,113.9z"/>
	<path class="st0" d="M593.5,124.1h-33.3v-8.7c0-10,1-17.8,3.1-23.2c2.1-5.4,6.3-10.2,12.5-14.4c6.3-4.2,14.4-6.3,24.4-6.3
		c12,0,21.1,2.4,27.2,7.1c6.1,4.7,9.8,10.5,11,17.4s1.8,21,1.8,42.4v65h-34.5V192c-2.2,4.6-5,8.1-8.4,10.4
		c-3.4,2.3-7.5,3.5-12.3,3.5c-6.2,0-11.9-1.9-17.1-5.8s-7.8-12.4-7.8-25.4v-10.6c0-9.7,1.4-16.3,4.1-19.8c2.8-3.5,9.6-7.6,20.5-12.3
		c11.7-5.1,17.9-8.5,18.7-10.3s1.2-5.3,1.2-10.7c0-6.8-0.5-11.2-1.4-13.2c-0.9-2.1-2.4-3.1-4.5-3.1c-2.4,0-3.9,0.9-4.5,2.6
		s-0.9,6.2-0.9,13.4v13.4C593.3,124.1,593.5,124.1,593.5,124.1z M604.8,141.9c-5.7,4.6-9,8.5-9.9,11.6s-1.4,7.6-1.4,13.5
		c0,6.7,0.4,11,1.2,13s2.4,2.9,4.7,2.9c2.2,0,3.7-0.8,4.4-2.3s1-5.5,1-12.1V141.9z"/>
	<path class="st0" d="M734.7,169.3c0,13.2-2.6,22.2-7.8,27s-16.5,7.2-33.8,7.2h-40.7V73.9h41.9c14.4,0,24.2,2.6,29.7,7.9
		c5.4,5.3,8.1,14.3,8.1,27.1c0,14.6-6.9,23-20.6,25c7.1,1.3,12.8,4.4,16.9,9.3c4.1,4.9,6.2,11.1,6.2,18.5L734.7,169.3L734.7,169.3z
		 M687.7,122.1c5.4,0,8.7-0.7,9.9-2.2s1.8-4.5,1.8-8.9c0-3.7-0.7-6.3-2-7.7c-1.3-1.4-4.6-2.1-9.7-2.1V122.1z M699.4,163.3v-4.4
		c0-5.6-0.7-9.1-2-10.5s-4.6-2.1-9.7-2.1v30c4.7,0,7.9-0.8,9.4-2.3C698.7,172.4,699.4,168.9,699.4,163.3z"/>
	<path class="st0" d="M825.4,119.4v31.7c0,11.7-0.5,20.2-1.6,25.6c-1.1,5.4-3.3,10.5-6.8,15.2s-7.9,8.2-13.3,10.4
		c-5.4,2.2-11.6,3.4-18.7,3.4c-7.9,0-14.5-1-20-2.9s-9.7-4.8-12.7-8.7s-5.2-8.6-6.5-14.1s-1.9-13.8-1.9-24.8V122
		c0-12,1.2-21.5,3.5-28.2c2.3-6.8,6.6-12.2,12.7-16.3c6.1-4.1,13.9-6.2,23.4-6.2c8,0,14.8,1.3,20.5,4s10.1,6.1,13.2,10.3
		c3.1,4.2,5.2,8.6,6.4,13.1S825.4,110.2,825.4,119.4z M789.9,109.7c0-6.6-0.3-10.8-1-12.5c-0.6-1.7-2-2.6-4.1-2.6s-3.5,0.9-4.2,2.6
		s-1.1,5.9-1.1,12.5v58.5c0,6.1,0.4,10.1,1.1,12s2.1,2.8,4.1,2.8c2.1,0,3.5-0.8,4.2-2.5s1-5.3,1-10.9V109.7z"/>
	<path class="st0" d="M940.3,228.5h-23.7v-25h-59.8v25h-23.7v-56h7.6c4.5-7.7,8.2-19.8,11.1-36.1s4.4-35.6,4.4-57.8v-4.8h76.6v98.4
		h7.6L940.3,228.5L940.3,228.5z M897.5,172.3v-69.2h-9.2v1.4c0,24.1-3.5,46.7-10.5,67.9h19.7V172.3z"/>
	<path class="st0" d="M1096.2,45.4v158.1h-32.3V96.8L1051,203.5h-22.9l-13.6-104.3v104.3H982V45.4h47.9c1.4,9.5,2.9,20.7,4.4,33.6
		l5.3,40.2l8.5-73.8C1048.1,45.4,1096.2,45.4,1096.2,45.4z"/>
	<path class="st0" d="M1190.4,141h-46v28c0,5.9,0.4,9.6,1.1,11.3c0.8,1.7,2.2,2.5,4.4,2.5c2.7,0,4.5-1.1,5.4-3.4
		c0.9-2.2,1.4-6.6,1.4-13v-17.1h33.7v9.6c0,8-0.5,14.2-1.4,18.5s-3,8.9-6.4,13.8s-7.6,8.5-12.7,11c-5.1,2.4-11.6,3.7-19.3,3.7
		c-7.5,0-14.1-1.2-19.9-3.6c-5.7-2.4-10.2-5.7-13.4-9.9c-3.2-4.2-5.4-8.8-6.6-13.9c-1.2-5-1.8-12.4-1.8-22v-37.8
		c0-11.3,1.4-20.3,4.1-26.8c2.8-6.5,7.3-11.6,13.5-15c6.3-3.5,13.5-5.2,21.6-5.2c10,0,18.2,2.1,24.7,6.3c6.5,4.2,11,9.8,13.6,16.7
		c2.6,6.9,3.9,16.7,3.9,29.2V141H1190.4z M1154.8,119.9v-9.5c0-6.7-0.3-11-1-13c-0.6-2-2-2.9-4-2.9c-2.5,0-4,0.8-4.6,2.5
		s-0.9,6.1-0.9,13.4v9.5H1154.8z"/>
	<path class="st0" d="M1272.3,73.9V101H1252v102.4h-35.4V101.1h-20.4V73.9H1272.3z"/>
	<path class="st0" d="M1311.1,124.1h-33.3v-8.7c0-10,1-17.8,3.1-23.2c2.1-5.4,6.3-10.2,12.5-14.4c6.3-4.2,14.4-6.3,24.4-6.3
		c12,0,21.1,2.4,27.2,7.1s9.8,10.5,11,17.4s1.8,21,1.8,42.4v65h-34.5V192c-2.2,4.6-5,8.1-8.4,10.4c-3.4,2.3-7.5,3.5-12.3,3.5
		c-6.2,0-11.9-1.9-17.1-5.8s-7.8-12.4-7.8-25.4v-10.6c0-9.7,1.4-16.3,4.1-19.8c2.8-3.5,9.6-7.6,20.5-12.3
		c11.7-5.1,17.9-8.5,18.7-10.3c0.8-1.8,1.2-5.3,1.2-10.7c0-6.8-0.5-11.2-1.4-13.2c-0.9-2.1-2.4-3.1-4.5-3.1c-2.4,0-3.9,0.9-4.5,2.6
		s-0.9,6.2-0.9,13.4v13.4C1310.9,124.1,1311.1,124.1,1311.1,124.1z M1322.4,141.9c-5.7,4.6-9,8.5-9.9,11.6s-1.4,7.6-1.4,13.5
		c0,6.7,0.4,11,1.2,13s2.4,2.9,4.7,2.9c2.2,0,3.7-0.8,4.4-2.3c0.7-1.5,1-5.5,1-12.1L1322.4,141.9L1322.4,141.9z"/>
	<path class="st0" d="M1424.1,203.5V101.1h-12.6v65.4c0,11.9-1.2,20.4-3.7,25.5s-6.3,8.3-11.6,9.6c-5.3,1.3-14,1.9-26.1,1.9h-5.8
		v-21.2c4.5-0.1,7.6-0.7,9.3-1.9c1.7-1.2,2.5-5.5,2.5-12.7V73.9h83.1v129.6H1424.1z"/>
	<path class="st0" d="M1525.1,203.5V101.1h-12.6v65.4c0,11.9-1.2,20.4-3.7,25.5s-6.3,8.3-11.6,9.6c-5.3,1.3-14,1.9-26.1,1.9h-5.8
		v-21.2c4.5-0.1,7.6-0.7,9.3-1.9c1.7-1.2,2.5-5.5,2.5-12.7V73.9h83.1v129.6H1525.1z"/>
	<path class="st0" d="M1652.4,119.4v31.7c0,11.7-0.5,20.2-1.6,25.6c-1.1,5.4-3.3,10.5-6.8,15.2s-7.9,8.2-13.3,10.4
		s-11.6,3.4-18.7,3.4c-7.9,0-14.5-1-20-2.9s-9.7-4.8-12.7-8.7s-5.2-8.6-6.5-14.1s-1.9-13.8-1.9-24.8V122c0-12,1.2-21.5,3.5-28.2
		c2.3-6.8,6.6-12.2,12.7-16.3c6.1-4.1,13.9-6.2,23.4-6.2c8,0,14.8,1.3,20.5,4s10.1,6.1,13.2,10.3c3.1,4.2,5.2,8.6,6.4,13.1
		S1652.4,110.2,1652.4,119.4z M1616.9,109.7c0-6.6-0.3-10.8-1-12.5c-0.6-1.7-2-2.6-4.1-2.6s-3.5,0.9-4.2,2.6s-1.1,5.9-1.1,12.5v58.5
		c0,6.1,0.4,10.1,1.1,12s2.1,2.8,4.1,2.8c2.1,0,3.5-0.8,4.2-2.5s1-5.3,1-10.9V109.7z"/>
	<path class="st0" d="M1665.2,45.3h37.1l0.2,66.8c7-0.2,10.6-4.5,10.8-12.9l0.7-30.9c0.2-11.4,2.2-19.1,6-23h34.2
		c-3.3,3.8-5,11.8-4.9,23.8l0.2,27.1c0.1,16.4-8.2,25.7-25,28c16.8,2.3,25.1,11.8,25,28.4l-0.2,25.2c-0.1,12,1.6,20.5,4.9,25.6H1720
		c-4-4-6-11.7-6-23v-30.9c0-3.9-1.1-7-3.2-9.4s-4.9-3.6-8.3-3.7l-0.2,67h-37.1L1665.2,45.3L1665.2,45.3z"/>
	<path class="st0" d="M1796.7,73.9l-0.6,11.5c3.2-4.6,6.6-8.1,10.5-10.4c3.8-2.3,8-3.4,12.5-3.4c5.5,0,10.3,1.6,14.3,4.9
		s6.5,7.1,7.5,11.4s1.5,11.6,1.5,21.9v54.6c0,11.8-0.6,20.2-1.9,25.1c-1.3,5-3.8,9-7.7,11.9c-3.9,3-8.6,4.4-14.1,4.4
		c-4.4,0-8.5-1.1-12.2-3.4c-3.8-2.3-7.2-5.7-10.3-10.2V222h-35.5V74L1796.7,73.9L1796.7,73.9z M1806.8,111.6c0-8-0.3-12.9-0.8-14.6
		s-2-2.5-4.4-2.5c-2.3,0-3.9,1-4.5,2.9c-0.7,2-1,6.7-1,14.2v53.7c0,7.8,0.4,12.7,1.1,14.6s2.2,2.9,4.6,2.9c2.3,0,3.7-0.9,4.3-2.7
		c0.6-1.8,0.8-6.1,0.8-13L1806.8,111.6L1806.8,111.6z"/>
	<path class="st0" d="M1934.4,119.4v31.7c0,11.7-0.5,20.2-1.6,25.6c-1.1,5.4-3.3,10.5-6.8,15.2s-7.9,8.2-13.3,10.4
		s-11.6,3.4-18.7,3.4c-7.9,0-14.5-1-20-2.9s-9.7-4.8-12.7-8.7s-5.2-8.6-6.5-14.1s-1.9-13.8-1.9-24.8V122c0-12,1.2-21.5,3.5-28.2
		c2.3-6.8,6.6-12.2,12.7-16.3c6.1-4.1,13.9-6.2,23.4-6.2c8,0,14.8,1.3,20.5,4s10.1,6.1,13.2,10.3c3.1,4.2,5.2,8.6,6.4,13.1
		S1934.4,110.2,1934.4,119.4z M1898.9,109.7c0-6.6-0.3-10.8-1-12.5c-0.6-1.7-2-2.6-4.1-2.6s-3.5,0.9-4.2,2.6s-1.1,5.9-1.1,12.5v58.5
		c0,6.1,0.4,10.1,1.1,12s2.1,2.8,4.1,2.8c2.1,0,3.5-0.8,4.2-2.5s1-5.3,1-10.9V109.7z"/>
	<path class="st0" d="M2028.3,169.3c0,13.2-2.6,22.2-7.8,27s-16.5,7.2-33.8,7.2H1946V73.9h41.9c14.4,0,24.2,2.6,29.7,7.9
		c5.4,5.3,8.1,14.3,8.1,27.1c0,14.6-6.9,23-20.6,25c7.1,1.3,12.8,4.4,16.9,9.3c4.1,4.9,6.2,11.1,6.2,18.5v7.6H2028.3z M1981.3,122.1
		c5.4,0,8.7-0.7,9.9-2.2c1.2-1.5,1.8-4.5,1.8-8.9c0-3.7-0.7-6.3-2-7.7c-1.3-1.4-4.6-2.1-9.7-2.1L1981.3,122.1L1981.3,122.1z
		 M1993,163.3v-4.4c0-5.6-0.7-9.1-2-10.5s-4.6-2.1-9.7-2.1v30c4.7,0,7.9-0.8,9.4-2.3C1992.2,172.4,1993,168.9,1993,163.3z"/>
	<path class="st0" d="M2092.6,203.5V101.1H2080v65.4c0,11.9-1.2,20.4-3.7,25.5s-6.3,8.3-11.6,9.6s-14,1.9-26.1,1.9h-5.8v-21.2
		c4.5-0.1,7.6-0.7,9.3-1.9c1.7-1.2,2.5-5.5,2.5-12.7V73.9h83.1v129.6H2092.6z"/>
	<path class="st0" d="M2227.6,203.5h-30.9v-70l-24.7,70h-32.3V73.9h30.9v69.4l24.3-69.4h32.8v129.6H2227.6z"/>
</g>
<path class="st0" d="M2339.5,468.6"/>
</svg>
